<mxfile host="app.diagrams.net" modified="2023-10-09T03:15:17.101Z" agent="Mozilla/5.0 (Windows NT 10.0; Win64; x64) AppleWebKit/537.36 (KHTML, like Gecko) Chrome/117.0.0.0 Safari/537.36" etag="VwUUYZHJ1uhAuGNyzzYt" version="22.0.4" type="device">
  <diagram id="C5RBs43oDa-KdzZeNtuy" name="Page-1">
    <mxGraphModel dx="2037" dy="1022" grid="1" gridSize="10" guides="1" tooltips="1" connect="1" arrows="1" fold="1" page="1" pageScale="1" pageWidth="827" pageHeight="1169" math="0" shadow="0">
      <root>
        <mxCell id="WIyWlLk6GJQsqaUBKTNV-0" />
        <mxCell id="WIyWlLk6GJQsqaUBKTNV-1" parent="WIyWlLk6GJQsqaUBKTNV-0" />
        <mxCell id="rN40R91mKetcKV_kiMLz-78" value="" style="edgeStyle=orthogonalEdgeStyle;rounded=0;orthogonalLoop=1;jettySize=auto;html=1;" edge="1" parent="WIyWlLk6GJQsqaUBKTNV-1" source="WIyWlLk6GJQsqaUBKTNV-3" target="rN40R91mKetcKV_kiMLz-1">
          <mxGeometry relative="1" as="geometry" />
        </mxCell>
        <mxCell id="WIyWlLk6GJQsqaUBKTNV-3" value="posicion = 0" style="rounded=1;whiteSpace=wrap;html=1;fontSize=12;glass=0;strokeWidth=1;shadow=0;" parent="WIyWlLk6GJQsqaUBKTNV-1" vertex="1">
          <mxGeometry x="344" y="40" width="240" height="40" as="geometry" />
        </mxCell>
        <mxCell id="rN40R91mKetcKV_kiMLz-32" style="edgeStyle=orthogonalEdgeStyle;rounded=0;orthogonalLoop=1;jettySize=auto;html=1;" edge="1" parent="WIyWlLk6GJQsqaUBKTNV-1" source="WIyWlLk6GJQsqaUBKTNV-6" target="rN40R91mKetcKV_kiMLz-31">
          <mxGeometry relative="1" as="geometry" />
        </mxCell>
        <mxCell id="rN40R91mKetcKV_kiMLz-33" value="verdadero" style="edgeLabel;html=1;align=left;verticalAlign=middle;resizable=0;points=[];" vertex="1" connectable="0" parent="rN40R91mKetcKV_kiMLz-32">
          <mxGeometry x="0.2376" y="5" relative="1" as="geometry">
            <mxPoint as="offset" />
          </mxGeometry>
        </mxCell>
        <mxCell id="rN40R91mKetcKV_kiMLz-95" style="edgeStyle=orthogonalEdgeStyle;rounded=0;orthogonalLoop=1;jettySize=auto;html=1;" edge="1" parent="WIyWlLk6GJQsqaUBKTNV-1" source="WIyWlLk6GJQsqaUBKTNV-6" target="rN40R91mKetcKV_kiMLz-96">
          <mxGeometry relative="1" as="geometry">
            <mxPoint x="1460" y="1280" as="targetPoint" />
          </mxGeometry>
        </mxCell>
        <mxCell id="WIyWlLk6GJQsqaUBKTNV-6" value="hay cartas validas para jugar?" style="rhombus;whiteSpace=wrap;html=1;shadow=0;fontFamily=Helvetica;fontSize=12;align=center;strokeWidth=1;spacing=6;spacingTop=-4;verticalAlign=middle;" parent="WIyWlLk6GJQsqaUBKTNV-1" vertex="1">
          <mxGeometry x="1370" y="150" width="200" height="70" as="geometry" />
        </mxCell>
        <mxCell id="rN40R91mKetcKV_kiMLz-79" value="" style="edgeStyle=orthogonalEdgeStyle;rounded=0;orthogonalLoop=1;jettySize=auto;html=1;" edge="1" parent="WIyWlLk6GJQsqaUBKTNV-1" source="rN40R91mKetcKV_kiMLz-1" target="rN40R91mKetcKV_kiMLz-2">
          <mxGeometry relative="1" as="geometry" />
        </mxCell>
        <mxCell id="rN40R91mKetcKV_kiMLz-1" value="turno = true" style="rounded=1;whiteSpace=wrap;html=1;fontSize=12;glass=0;strokeWidth=1;shadow=0;" vertex="1" parent="WIyWlLk6GJQsqaUBKTNV-1">
          <mxGeometry x="660" y="40" width="240" height="40" as="geometry" />
        </mxCell>
        <mxCell id="rN40R91mKetcKV_kiMLz-80" value="" style="edgeStyle=orthogonalEdgeStyle;rounded=0;orthogonalLoop=1;jettySize=auto;html=1;" edge="1" parent="WIyWlLk6GJQsqaUBKTNV-1" source="rN40R91mKetcKV_kiMLz-2" target="rN40R91mKetcKV_kiMLz-3">
          <mxGeometry relative="1" as="geometry" />
        </mxCell>
        <mxCell id="rN40R91mKetcKV_kiMLz-2" value="esCartaEspecial= false" style="rounded=1;whiteSpace=wrap;html=1;fontSize=12;glass=0;strokeWidth=1;shadow=0;" vertex="1" parent="WIyWlLk6GJQsqaUBKTNV-1">
          <mxGeometry x="980" y="40" width="240" height="40" as="geometry" />
        </mxCell>
        <mxCell id="rN40R91mKetcKV_kiMLz-82" value="" style="edgeStyle=orthogonalEdgeStyle;rounded=0;orthogonalLoop=1;jettySize=auto;html=1;" edge="1" parent="WIyWlLk6GJQsqaUBKTNV-1" source="rN40R91mKetcKV_kiMLz-3" target="WIyWlLk6GJQsqaUBKTNV-6">
          <mxGeometry relative="1" as="geometry" />
        </mxCell>
        <mxCell id="rN40R91mKetcKV_kiMLz-3" value="id = obtenga la ultima carta jugada" style="rounded=1;whiteSpace=wrap;html=1;fontSize=12;glass=0;strokeWidth=1;shadow=0;" vertex="1" parent="WIyWlLk6GJQsqaUBKTNV-1">
          <mxGeometry x="1350" y="40" width="240" height="40" as="geometry" />
        </mxCell>
        <mxCell id="rN40R91mKetcKV_kiMLz-85" value="" style="edgeStyle=orthogonalEdgeStyle;rounded=0;orthogonalLoop=1;jettySize=auto;html=1;" edge="1" parent="WIyWlLk6GJQsqaUBKTNV-1" source="rN40R91mKetcKV_kiMLz-4" target="rN40R91mKetcKV_kiMLz-8">
          <mxGeometry relative="1" as="geometry" />
        </mxCell>
        <mxCell id="rN40R91mKetcKV_kiMLz-4" value="entregue la carta a la basura" style="rounded=1;whiteSpace=wrap;html=1;fontSize=12;glass=0;strokeWidth=1;shadow=0;" vertex="1" parent="WIyWlLk6GJQsqaUBKTNV-1">
          <mxGeometry x="650" y="165" width="170" height="40" as="geometry" />
        </mxCell>
        <mxCell id="rN40R91mKetcKV_kiMLz-34" style="edgeStyle=orthogonalEdgeStyle;rounded=0;orthogonalLoop=1;jettySize=auto;html=1;" edge="1" parent="WIyWlLk6GJQsqaUBKTNV-1" source="rN40R91mKetcKV_kiMLz-6" target="rN40R91mKetcKV_kiMLz-7">
          <mxGeometry relative="1" as="geometry" />
        </mxCell>
        <mxCell id="rN40R91mKetcKV_kiMLz-6" value="id= obtenga la ultima carta jugada" style="rounded=1;whiteSpace=wrap;html=1;fontSize=12;glass=0;strokeWidth=1;shadow=0;" vertex="1" parent="WIyWlLk6GJQsqaUBKTNV-1">
          <mxGeometry x="40" y="165" width="240" height="40" as="geometry" />
        </mxCell>
        <mxCell id="rN40R91mKetcKV_kiMLz-14" style="edgeStyle=orthogonalEdgeStyle;rounded=0;orthogonalLoop=1;jettySize=auto;html=1;entryX=0;entryY=0.5;entryDx=0;entryDy=0;" edge="1" parent="WIyWlLk6GJQsqaUBKTNV-1" source="rN40R91mKetcKV_kiMLz-7" target="rN40R91mKetcKV_kiMLz-9">
          <mxGeometry relative="1" as="geometry" />
        </mxCell>
        <mxCell id="rN40R91mKetcKV_kiMLz-15" value="verdadero" style="edgeLabel;html=1;align=center;verticalAlign=bottom;resizable=0;points=[];horizontal=1;" vertex="1" connectable="0" parent="rN40R91mKetcKV_kiMLz-14">
          <mxGeometry x="-0.2462" y="-1" relative="1" as="geometry">
            <mxPoint as="offset" />
          </mxGeometry>
        </mxCell>
        <mxCell id="rN40R91mKetcKV_kiMLz-16" style="edgeStyle=orthogonalEdgeStyle;rounded=0;orthogonalLoop=1;jettySize=auto;html=1;entryX=0.5;entryY=0;entryDx=0;entryDy=0;" edge="1" parent="WIyWlLk6GJQsqaUBKTNV-1" source="rN40R91mKetcKV_kiMLz-7" target="rN40R91mKetcKV_kiMLz-13">
          <mxGeometry relative="1" as="geometry" />
        </mxCell>
        <mxCell id="rN40R91mKetcKV_kiMLz-17" value="&lt;div style=&quot;&quot;&gt;falso&lt;/div&gt;" style="edgeLabel;html=1;align=right;verticalAlign=middle;resizable=0;points=[];" vertex="1" connectable="0" parent="rN40R91mKetcKV_kiMLz-16">
          <mxGeometry x="-0.1636" y="-3" relative="1" as="geometry">
            <mxPoint as="offset" />
          </mxGeometry>
        </mxCell>
        <mxCell id="rN40R91mKetcKV_kiMLz-7" value="cartaEspecial == verdadero&lt;br&gt;y no es buscar en pila" style="rhombus;whiteSpace=wrap;html=1;" vertex="1" parent="WIyWlLk6GJQsqaUBKTNV-1">
          <mxGeometry x="60" y="270" width="200" height="80" as="geometry" />
        </mxCell>
        <mxCell id="rN40R91mKetcKV_kiMLz-87" value="" style="edgeStyle=orthogonalEdgeStyle;rounded=0;orthogonalLoop=1;jettySize=auto;html=1;" edge="1" parent="WIyWlLk6GJQsqaUBKTNV-1" source="rN40R91mKetcKV_kiMLz-8" target="rN40R91mKetcKV_kiMLz-6">
          <mxGeometry relative="1" as="geometry" />
        </mxCell>
        <mxCell id="rN40R91mKetcKV_kiMLz-8" value="cartaEspecial = evalue si la ultima carta jugada es especial" style="rounded=1;whiteSpace=wrap;html=1;fontSize=12;glass=0;strokeWidth=1;shadow=0;" vertex="1" parent="WIyWlLk6GJQsqaUBKTNV-1">
          <mxGeometry x="360" y="165" width="240" height="40" as="geometry" />
        </mxCell>
        <mxCell id="rN40R91mKetcKV_kiMLz-88" value="" style="edgeStyle=orthogonalEdgeStyle;rounded=0;orthogonalLoop=1;jettySize=auto;html=1;" edge="1" parent="WIyWlLk6GJQsqaUBKTNV-1" source="rN40R91mKetcKV_kiMLz-9" target="rN40R91mKetcKV_kiMLz-11">
          <mxGeometry relative="1" as="geometry" />
        </mxCell>
        <mxCell id="rN40R91mKetcKV_kiMLz-9" value="Cambie CartasComer segun valor de la carta especial" style="rounded=1;whiteSpace=wrap;html=1;fontSize=12;glass=0;strokeWidth=1;shadow=0;" vertex="1" parent="WIyWlLk6GJQsqaUBKTNV-1">
          <mxGeometry x="400" y="290" width="190" height="40" as="geometry" />
        </mxCell>
        <mxCell id="rN40R91mKetcKV_kiMLz-10" value="turno = falso" style="rounded=1;whiteSpace=wrap;html=1;fontSize=12;glass=0;strokeWidth=1;shadow=0;" vertex="1" parent="WIyWlLk6GJQsqaUBKTNV-1">
          <mxGeometry x="920" y="290" width="160" height="40" as="geometry" />
        </mxCell>
        <mxCell id="rN40R91mKetcKV_kiMLz-90" value="" style="edgeStyle=orthogonalEdgeStyle;rounded=0;orthogonalLoop=1;jettySize=auto;html=1;" edge="1" parent="WIyWlLk6GJQsqaUBKTNV-1" source="rN40R91mKetcKV_kiMLz-11" target="rN40R91mKetcKV_kiMLz-10">
          <mxGeometry relative="1" as="geometry" />
        </mxCell>
        <mxCell id="rN40R91mKetcKV_kiMLz-11" value="Escoja el color que se debe jugar el siguiente turno" style="rounded=1;whiteSpace=wrap;html=1;fontSize=12;glass=0;strokeWidth=1;shadow=0;" vertex="1" parent="WIyWlLk6GJQsqaUBKTNV-1">
          <mxGeometry x="670" y="290" width="180" height="40" as="geometry" />
        </mxCell>
        <mxCell id="rN40R91mKetcKV_kiMLz-77" value="" style="edgeStyle=orthogonalEdgeStyle;rounded=0;orthogonalLoop=1;jettySize=auto;html=1;" edge="1" parent="WIyWlLk6GJQsqaUBKTNV-1" source="rN40R91mKetcKV_kiMLz-12" target="WIyWlLk6GJQsqaUBKTNV-3">
          <mxGeometry relative="1" as="geometry" />
        </mxCell>
        <mxCell id="rN40R91mKetcKV_kiMLz-12" value="cartasComer = obtenga las cartas que debe comer del objeto juego" style="rounded=1;whiteSpace=wrap;html=1;fontSize=12;glass=0;strokeWidth=1;shadow=0;" vertex="1" parent="WIyWlLk6GJQsqaUBKTNV-1">
          <mxGeometry x="40" y="40" width="240" height="40" as="geometry" />
        </mxCell>
        <mxCell id="rN40R91mKetcKV_kiMLz-38" style="edgeStyle=orthogonalEdgeStyle;rounded=0;orthogonalLoop=1;jettySize=auto;html=1;entryX=0;entryY=0.5;entryDx=0;entryDy=0;" edge="1" parent="WIyWlLk6GJQsqaUBKTNV-1" source="rN40R91mKetcKV_kiMLz-13" target="rN40R91mKetcKV_kiMLz-37">
          <mxGeometry relative="1" as="geometry" />
        </mxCell>
        <mxCell id="rN40R91mKetcKV_kiMLz-68" style="edgeStyle=orthogonalEdgeStyle;rounded=0;orthogonalLoop=1;jettySize=auto;html=1;" edge="1" parent="WIyWlLk6GJQsqaUBKTNV-1" source="rN40R91mKetcKV_kiMLz-13" target="rN40R91mKetcKV_kiMLz-71">
          <mxGeometry relative="1" as="geometry">
            <mxPoint x="160" y="762" as="targetPoint" />
          </mxGeometry>
        </mxCell>
        <mxCell id="rN40R91mKetcKV_kiMLz-69" value="falso" style="edgeLabel;html=1;align=right;verticalAlign=middle;resizable=0;points=[];" vertex="1" connectable="0" parent="rN40R91mKetcKV_kiMLz-68">
          <mxGeometry x="0.0619" y="3" relative="1" as="geometry">
            <mxPoint as="offset" />
          </mxGeometry>
        </mxCell>
        <mxCell id="rN40R91mKetcKV_kiMLz-92" style="edgeStyle=orthogonalEdgeStyle;rounded=0;orthogonalLoop=1;jettySize=auto;html=1;" edge="1" parent="WIyWlLk6GJQsqaUBKTNV-1" source="rN40R91mKetcKV_kiMLz-13" target="rN40R91mKetcKV_kiMLz-94">
          <mxGeometry relative="1" as="geometry">
            <mxPoint x="160" y="840" as="targetPoint" />
          </mxGeometry>
        </mxCell>
        <mxCell id="rN40R91mKetcKV_kiMLz-13" value="cartaEspecial == verdadero&lt;br&gt;y es buscar en pila" style="rhombus;whiteSpace=wrap;html=1;" vertex="1" parent="WIyWlLk6GJQsqaUBKTNV-1">
          <mxGeometry x="60" y="462" width="200" height="80" as="geometry" />
        </mxCell>
        <mxCell id="rN40R91mKetcKV_kiMLz-65" style="edgeStyle=orthogonalEdgeStyle;rounded=0;orthogonalLoop=1;jettySize=auto;html=1;entryX=0;entryY=0.5;entryDx=0;entryDy=0;" edge="1" parent="WIyWlLk6GJQsqaUBKTNV-1" source="rN40R91mKetcKV_kiMLz-18" target="rN40R91mKetcKV_kiMLz-20">
          <mxGeometry relative="1" as="geometry">
            <Array as="points">
              <mxPoint x="590" y="573" />
              <mxPoint x="550" y="573" />
              <mxPoint x="550" y="654" />
            </Array>
          </mxGeometry>
        </mxCell>
        <mxCell id="rN40R91mKetcKV_kiMLz-67" style="edgeStyle=orthogonalEdgeStyle;rounded=0;orthogonalLoop=1;jettySize=auto;html=1;entryX=0;entryY=0.5;entryDx=0;entryDy=0;" edge="1" parent="WIyWlLk6GJQsqaUBKTNV-1" source="rN40R91mKetcKV_kiMLz-18" target="rN40R91mKetcKV_kiMLz-41">
          <mxGeometry relative="1" as="geometry">
            <Array as="points">
              <mxPoint x="560" y="770" />
              <mxPoint x="650" y="770" />
              <mxPoint x="650" y="772" />
            </Array>
          </mxGeometry>
        </mxCell>
        <mxCell id="rN40R91mKetcKV_kiMLz-18" value="obtenga la carta que desea jugar el jugador de la pila de basura" style="rounded=1;whiteSpace=wrap;html=1;fontSize=12;glass=0;strokeWidth=1;shadow=0;" vertex="1" parent="WIyWlLk6GJQsqaUBKTNV-1">
          <mxGeometry x="484" y="482" width="170" height="50" as="geometry" />
        </mxCell>
        <mxCell id="rN40R91mKetcKV_kiMLz-35" style="edgeStyle=orthogonalEdgeStyle;rounded=0;orthogonalLoop=1;jettySize=auto;html=1;entryX=0;entryY=0.5;entryDx=0;entryDy=0;exitX=1;exitY=0.5;exitDx=0;exitDy=0;" edge="1" parent="WIyWlLk6GJQsqaUBKTNV-1" source="rN40R91mKetcKV_kiMLz-20" target="rN40R91mKetcKV_kiMLz-28">
          <mxGeometry relative="1" as="geometry">
            <mxPoint x="280" y="832" as="targetPoint" />
          </mxGeometry>
        </mxCell>
        <mxCell id="rN40R91mKetcKV_kiMLz-44" value="verdadero" style="edgeLabel;html=1;align=left;verticalAlign=bottom;resizable=0;points=[];" vertex="1" connectable="0" parent="rN40R91mKetcKV_kiMLz-35">
          <mxGeometry x="-0.473" y="1" relative="1" as="geometry">
            <mxPoint as="offset" />
          </mxGeometry>
        </mxCell>
        <mxCell id="rN40R91mKetcKV_kiMLz-20" value="rival tiene carta cancelar?" style="rhombus;whiteSpace=wrap;html=1;" vertex="1" parent="WIyWlLk6GJQsqaUBKTNV-1">
          <mxGeometry x="670" y="614" width="200" height="80" as="geometry" />
        </mxCell>
        <mxCell id="rN40R91mKetcKV_kiMLz-36" style="edgeStyle=orthogonalEdgeStyle;rounded=0;orthogonalLoop=1;jettySize=auto;html=1;entryX=0.5;entryY=0;entryDx=0;entryDy=0;exitX=0.5;exitY=1;exitDx=0;exitDy=0;" edge="1" parent="WIyWlLk6GJQsqaUBKTNV-1" source="rN40R91mKetcKV_kiMLz-25" target="rN40R91mKetcKV_kiMLz-26">
          <mxGeometry relative="1" as="geometry" />
        </mxCell>
        <mxCell id="rN40R91mKetcKV_kiMLz-25" value="cancelarBP == verdadero" style="rhombus;whiteSpace=wrap;html=1;" vertex="1" parent="WIyWlLk6GJQsqaUBKTNV-1">
          <mxGeometry x="1190" y="614" width="200" height="80" as="geometry" />
        </mxCell>
        <mxCell id="rN40R91mKetcKV_kiMLz-26" value="agregue cancelar a la basura" style="rounded=1;whiteSpace=wrap;html=1;fontSize=12;glass=0;strokeWidth=1;shadow=0;" vertex="1" parent="WIyWlLk6GJQsqaUBKTNV-1">
          <mxGeometry x="1215" y="742" width="150" height="40" as="geometry" />
        </mxCell>
        <mxCell id="rN40R91mKetcKV_kiMLz-51" style="edgeStyle=orthogonalEdgeStyle;rounded=0;orthogonalLoop=1;jettySize=auto;html=1;entryX=0;entryY=0.5;entryDx=0;entryDy=0;" edge="1" parent="WIyWlLk6GJQsqaUBKTNV-1" source="rN40R91mKetcKV_kiMLz-28" target="rN40R91mKetcKV_kiMLz-25">
          <mxGeometry relative="1" as="geometry" />
        </mxCell>
        <mxCell id="rN40R91mKetcKV_kiMLz-28" value="cancelarBP = rival quiere cancelar buscar en pila?" style="rounded=1;whiteSpace=wrap;html=1;fontSize=12;glass=0;strokeWidth=1;shadow=0;" vertex="1" parent="WIyWlLk6GJQsqaUBKTNV-1">
          <mxGeometry x="980" y="634" width="150" height="40" as="geometry" />
        </mxCell>
        <mxCell id="rN40R91mKetcKV_kiMLz-29" value="test" style="rounded=1;whiteSpace=wrap;html=1;fontSize=12;glass=0;strokeWidth=1;shadow=0;" vertex="1" parent="WIyWlLk6GJQsqaUBKTNV-1">
          <mxGeometry x="1215" y="882" width="150" height="40" as="geometry" />
        </mxCell>
        <mxCell id="rN40R91mKetcKV_kiMLz-30" value="test" style="rounded=1;whiteSpace=wrap;html=1;fontSize=12;glass=0;strokeWidth=1;shadow=0;" vertex="1" parent="WIyWlLk6GJQsqaUBKTNV-1">
          <mxGeometry x="1220" y="812" width="150" height="40" as="geometry" />
        </mxCell>
        <mxCell id="rN40R91mKetcKV_kiMLz-83" value="" style="edgeStyle=orthogonalEdgeStyle;rounded=0;orthogonalLoop=1;jettySize=auto;html=1;" edge="1" parent="WIyWlLk6GJQsqaUBKTNV-1" source="rN40R91mKetcKV_kiMLz-31" target="rN40R91mKetcKV_kiMLz-4">
          <mxGeometry relative="1" as="geometry" />
        </mxCell>
        <mxCell id="rN40R91mKetcKV_kiMLz-31" value="obtenga la carta que desea jugar el jugador" style="rounded=1;whiteSpace=wrap;html=1;fontSize=12;glass=0;strokeWidth=1;shadow=0;" vertex="1" parent="WIyWlLk6GJQsqaUBKTNV-1">
          <mxGeometry x="885" y="165" width="240" height="40" as="geometry" />
        </mxCell>
        <mxCell id="rN40R91mKetcKV_kiMLz-64" style="edgeStyle=orthogonalEdgeStyle;rounded=0;orthogonalLoop=1;jettySize=auto;html=1;entryX=0;entryY=0.5;entryDx=0;entryDy=0;" edge="1" parent="WIyWlLk6GJQsqaUBKTNV-1" source="rN40R91mKetcKV_kiMLz-37" target="rN40R91mKetcKV_kiMLz-18">
          <mxGeometry relative="1" as="geometry" />
        </mxCell>
        <mxCell id="rN40R91mKetcKV_kiMLz-37" value="cancelarBP = false" style="rounded=1;whiteSpace=wrap;html=1;fontSize=12;glass=0;strokeWidth=1;shadow=0;" vertex="1" parent="WIyWlLk6GJQsqaUBKTNV-1">
          <mxGeometry x="310" y="482" width="140" height="40" as="geometry" />
        </mxCell>
        <mxCell id="rN40R91mKetcKV_kiMLz-41" value="cancelarBP == falso" style="rhombus;whiteSpace=wrap;html=1;" vertex="1" parent="WIyWlLk6GJQsqaUBKTNV-1">
          <mxGeometry x="670" y="732" width="200" height="80" as="geometry" />
        </mxCell>
        <mxCell id="rN40R91mKetcKV_kiMLz-54" value="jugar la carta" style="rounded=1;whiteSpace=wrap;html=1;fontSize=12;glass=0;strokeWidth=1;shadow=0;" vertex="1" parent="WIyWlLk6GJQsqaUBKTNV-1">
          <mxGeometry x="970" y="752" width="170" height="40" as="geometry" />
        </mxCell>
        <mxCell id="rN40R91mKetcKV_kiMLz-55" style="edgeStyle=orthogonalEdgeStyle;rounded=0;orthogonalLoop=1;jettySize=auto;html=1;entryX=0;entryY=0.5;entryDx=0;entryDy=0;exitX=1;exitY=0.5;exitDx=0;exitDy=0;" edge="1" parent="WIyWlLk6GJQsqaUBKTNV-1" source="rN40R91mKetcKV_kiMLz-41" target="rN40R91mKetcKV_kiMLz-54">
          <mxGeometry relative="1" as="geometry">
            <mxPoint x="990" y="664" as="targetPoint" />
            <mxPoint x="880" y="664" as="sourcePoint" />
            <Array as="points">
              <mxPoint x="950" y="772" />
              <mxPoint x="950" y="772" />
            </Array>
          </mxGeometry>
        </mxCell>
        <mxCell id="rN40R91mKetcKV_kiMLz-56" value="verdadero" style="edgeLabel;html=1;align=left;verticalAlign=bottom;resizable=0;points=[];" vertex="1" connectable="0" parent="rN40R91mKetcKV_kiMLz-55">
          <mxGeometry x="-0.473" y="1" relative="1" as="geometry">
            <mxPoint as="offset" />
          </mxGeometry>
        </mxCell>
        <mxCell id="rN40R91mKetcKV_kiMLz-60" style="edgeStyle=orthogonalEdgeStyle;rounded=0;orthogonalLoop=1;jettySize=auto;html=1;" edge="1" parent="WIyWlLk6GJQsqaUBKTNV-1" source="rN40R91mKetcKV_kiMLz-57" target="rN40R91mKetcKV_kiMLz-61">
          <mxGeometry relative="1" as="geometry">
            <mxPoint x="960" y="909" as="targetPoint" />
          </mxGeometry>
        </mxCell>
        <mxCell id="rN40R91mKetcKV_kiMLz-57" value="allan" style="rhombus;whiteSpace=wrap;html=1;" vertex="1" parent="WIyWlLk6GJQsqaUBKTNV-1">
          <mxGeometry x="670" y="869" width="200" height="80" as="geometry" />
        </mxCell>
        <mxCell id="rN40R91mKetcKV_kiMLz-63" style="edgeStyle=orthogonalEdgeStyle;rounded=0;orthogonalLoop=1;jettySize=auto;html=1;" edge="1" parent="WIyWlLk6GJQsqaUBKTNV-1" source="rN40R91mKetcKV_kiMLz-58" target="rN40R91mKetcKV_kiMLz-62">
          <mxGeometry relative="1" as="geometry" />
        </mxCell>
        <mxCell id="rN40R91mKetcKV_kiMLz-58" value="allan" style="rhombus;whiteSpace=wrap;html=1;" vertex="1" parent="WIyWlLk6GJQsqaUBKTNV-1">
          <mxGeometry x="940" y="969" width="200" height="80" as="geometry" />
        </mxCell>
        <mxCell id="rN40R91mKetcKV_kiMLz-59" style="edgeStyle=orthogonalEdgeStyle;rounded=0;orthogonalLoop=1;jettySize=auto;html=1;entryX=0.015;entryY=0.581;entryDx=0;entryDy=0;entryPerimeter=0;" edge="1" parent="WIyWlLk6GJQsqaUBKTNV-1" source="rN40R91mKetcKV_kiMLz-57" target="rN40R91mKetcKV_kiMLz-58">
          <mxGeometry relative="1" as="geometry">
            <Array as="points">
              <mxPoint x="770" y="1009" />
              <mxPoint x="943" y="1009" />
            </Array>
          </mxGeometry>
        </mxCell>
        <mxCell id="rN40R91mKetcKV_kiMLz-61" value="allan" style="rounded=1;whiteSpace=wrap;html=1;fontSize=12;glass=0;strokeWidth=1;shadow=0;" vertex="1" parent="WIyWlLk6GJQsqaUBKTNV-1">
          <mxGeometry x="955" y="889" width="170" height="40" as="geometry" />
        </mxCell>
        <mxCell id="rN40R91mKetcKV_kiMLz-62" value="allan" style="rhombus;whiteSpace=wrap;html=1;" vertex="1" parent="WIyWlLk6GJQsqaUBKTNV-1">
          <mxGeometry x="940" y="1089" width="200" height="80" as="geometry" />
        </mxCell>
        <mxCell id="rN40R91mKetcKV_kiMLz-72" style="edgeStyle=orthogonalEdgeStyle;rounded=0;orthogonalLoop=1;jettySize=auto;html=1;entryX=0;entryY=0.5;entryDx=0;entryDy=0;" edge="1" parent="WIyWlLk6GJQsqaUBKTNV-1" source="rN40R91mKetcKV_kiMLz-71" target="rN40R91mKetcKV_kiMLz-73">
          <mxGeometry relative="1" as="geometry">
            <mxPoint x="340" y="692" as="targetPoint" />
          </mxGeometry>
        </mxCell>
        <mxCell id="rN40R91mKetcKV_kiMLz-93" value="verdadero" style="edgeLabel;html=1;align=left;verticalAlign=middle;resizable=0;points=[];" vertex="1" connectable="0" parent="rN40R91mKetcKV_kiMLz-72">
          <mxGeometry x="-0.3676" relative="1" as="geometry">
            <mxPoint as="offset" />
          </mxGeometry>
        </mxCell>
        <mxCell id="rN40R91mKetcKV_kiMLz-71" value="cartasComer &amp;gt;0" style="rhombus;whiteSpace=wrap;html=1;" vertex="1" parent="WIyWlLk6GJQsqaUBKTNV-1">
          <mxGeometry x="230" y="614" width="200" height="80" as="geometry" />
        </mxCell>
        <mxCell id="rN40R91mKetcKV_kiMLz-76" value="" style="edgeStyle=orthogonalEdgeStyle;rounded=0;orthogonalLoop=1;jettySize=auto;html=1;" edge="1" parent="WIyWlLk6GJQsqaUBKTNV-1" source="rN40R91mKetcKV_kiMLz-73" target="rN40R91mKetcKV_kiMLz-75">
          <mxGeometry relative="1" as="geometry" />
        </mxCell>
        <mxCell id="rN40R91mKetcKV_kiMLz-73" value="coma las cartas necesarias" style="rounded=1;whiteSpace=wrap;html=1;fontSize=12;glass=0;strokeWidth=1;shadow=0;" vertex="1" parent="WIyWlLk6GJQsqaUBKTNV-1">
          <mxGeometry x="370" y="750" width="140" height="40" as="geometry" />
        </mxCell>
        <mxCell id="rN40R91mKetcKV_kiMLz-75" value="cartasComer = 0" style="whiteSpace=wrap;html=1;rounded=1;glass=0;strokeWidth=1;shadow=0;" vertex="1" parent="WIyWlLk6GJQsqaUBKTNV-1">
          <mxGeometry x="380" y="839" width="120" height="30" as="geometry" />
        </mxCell>
        <mxCell id="rN40R91mKetcKV_kiMLz-94" value="turno = falso" style="whiteSpace=wrap;html=1;rounded=1;glass=0;strokeWidth=1;shadow=0;" vertex="1" parent="WIyWlLk6GJQsqaUBKTNV-1">
          <mxGeometry x="100" y="859" width="120" height="30" as="geometry" />
        </mxCell>
        <mxCell id="rN40R91mKetcKV_kiMLz-96" value="ALLAN" style="rhombus;whiteSpace=wrap;html=1;" vertex="1" parent="WIyWlLk6GJQsqaUBKTNV-1">
          <mxGeometry x="1365" y="1210" width="200" height="80" as="geometry" />
        </mxCell>
      </root>
    </mxGraphModel>
  </diagram>
</mxfile>
